<?xml version="1.0" encoding="UTF-8" standalone="no"?>
<svg width="21px" height="20px" viewBox="0 0 21 20" version="1.1" xmlns="http://www.w3.org/2000/svg" xmlns:xlink="http://www.w3.org/1999/xlink" xmlns:sketch="http://www.bohemiancoding.com/sketch/ns">
    <!-- Generator: Sketch 3.3.2 (12043) - http://www.bohemiancoding.com/sketch -->
    <title>fa-plus-circle copy</title>
    <desc>Created with Sketch.</desc>
    <defs></defs>
    <g id="Introduction" stroke="none" stroke-width="1" fill="none" fill-rule="evenodd" sketch:type="MSPage">
        <g id="Artboard-2" sketch:type="MSArtboardGroup" transform="translate(-145.000000, -27.000000)">
            <g id="fa-plus-circle-copy" sketch:type="MSLayerGroup" transform="translate(145.000000, 27.000000)">
                <ellipse id="Oval-2" fill="#FFFFFF" sketch:type="MSShapeGroup" cx="10.5" cy="9.5" rx="7.5" ry="6.5"></ellipse>
                <path d="M5.672,18.052 C7.131,18.927 8.747,19.354 10.498,19.354 C12.249,19.354 13.865,18.927 15.324,18.052 C16.805,17.199 17.972,16.032 18.825,14.55 C19.701,13.091 20.127,11.475 20.127,9.724 C20.127,7.996 19.701,6.38 18.825,4.921 C17.972,3.44 16.805,2.272 15.324,1.42 C13.865,0.544 12.249,0.118 10.498,0.118 C8.747,0.118 7.131,0.544 5.672,1.42 C4.191,2.272 3.023,3.44 2.171,4.921 C1.295,6.38 0.869,7.996 0.869,9.724 C0.869,11.475 1.295,13.091 2.171,14.55 C3.023,16.032 4.191,17.199 5.672,18.052 L5.672,18.052 Z M4.887,8.939 C4.887,8.714 4.976,8.535 5.133,8.378 C5.29,8.221 5.47,8.131 5.695,8.131 L8.904,8.131 L8.904,4.943 C8.904,4.719 8.972,4.539 9.129,4.382 C9.286,4.225 9.488,4.135 9.69,4.135 L11.306,4.135 C11.508,4.135 11.71,4.225 11.867,4.382 C12.024,4.539 12.092,4.719 12.092,4.943 L12.092,8.131 L15.301,8.131 C15.526,8.131 15.705,8.221 15.862,8.378 C16.02,8.535 16.109,8.714 16.109,8.939 L16.109,10.532 C16.109,10.757 16.02,10.937 15.862,11.094 C15.705,11.251 15.526,11.341 15.301,11.341 L12.092,11.341 L12.092,14.528 C12.092,14.752 12.024,14.932 11.867,15.089 C11.71,15.246 11.508,15.336 11.306,15.336 L9.69,15.336 C9.488,15.336 9.286,15.246 9.129,15.089 C8.972,14.932 8.904,14.752 8.904,14.528 L8.904,11.341 L5.695,11.341 C5.47,11.341 5.29,11.251 5.133,11.094 C4.976,10.937 4.887,10.757 4.887,10.532 L4.887,8.939 L4.887,8.939 Z" id="Fill-52" fill="#22A9D8" sketch:type="MSShapeGroup"></path>
            </g>
        </g>
    </g>
</svg>